<svg xmlns="http://www.w3.org/2000/svg" xmlns:xlink="http://www.w3.org/1999/xlink" width="1920" zoomAndPan="magnify" viewBox="0 0 1440 735" height="980" preserveAspectRatio="xMidYMid meet" version="1.0"><defs><g/><clipPath id="id1"><path d="M 1013.621094 439 L 1405.871094 439 L 1405.871094 735 L 1013.621094 735 Z M 1013.621094 439 " clip-rule="nonzero"/></clipPath><clipPath id="id2"><path d="M 0 271 L 89 271 L 89 386 L 0 386 Z M 0 271 " clip-rule="nonzero"/></clipPath><clipPath id="id3"><path d="M 270.996094 135.839844 L 258.398438 536.140625 L -29.460938 527.085938 L -16.863281 126.78125 Z M 270.996094 135.839844 " clip-rule="nonzero"/></clipPath><clipPath id="id4"><path d="M 270.996094 135.839844 L 258.398438 536.140625 L -29.460938 527.085938 L -16.863281 126.78125 Z M 270.996094 135.839844 " clip-rule="nonzero"/></clipPath><clipPath id="id5"><path d="M 270.996094 135.839844 L 258.398438 536.140625 L -29.460938 527.085938 L -16.863281 126.78125 Z M 270.996094 135.839844 " clip-rule="nonzero"/></clipPath><clipPath id="id6"><path d="M 0 240 L 121 240 L 121 414 L 0 414 Z M 0 240 " clip-rule="nonzero"/></clipPath><clipPath id="id7"><path d="M 270.996094 135.839844 L 258.398438 536.140625 L -29.460938 527.085938 L -16.863281 126.78125 Z M 270.996094 135.839844 " clip-rule="nonzero"/></clipPath><clipPath id="id8"><path d="M 270.996094 135.839844 L 258.398438 536.140625 L -29.460938 527.085938 L -16.863281 126.78125 Z M 270.996094 135.839844 " clip-rule="nonzero"/></clipPath><clipPath id="id9"><path d="M 270.996094 135.839844 L 258.398438 536.140625 L -29.460938 527.085938 L -16.863281 126.78125 Z M 270.996094 135.839844 " clip-rule="nonzero"/></clipPath><clipPath id="id10"><path d="M 0 209 L 161 209 L 161 452 L 0 452 Z M 0 209 " clip-rule="nonzero"/></clipPath><clipPath id="id11"><path d="M 270.996094 135.839844 L 258.398438 536.140625 L -29.460938 527.085938 L -16.863281 126.78125 Z M 270.996094 135.839844 " clip-rule="nonzero"/></clipPath><clipPath id="id12"><path d="M 270.996094 135.839844 L 258.398438 536.140625 L -29.460938 527.085938 L -16.863281 126.78125 Z M 270.996094 135.839844 " clip-rule="nonzero"/></clipPath><clipPath id="id13"><path d="M 270.996094 135.839844 L 258.398438 536.140625 L -29.460938 527.085938 L -16.863281 126.78125 Z M 270.996094 135.839844 " clip-rule="nonzero"/></clipPath><clipPath id="id14"><path d="M 0 175 L 213 175 L 213 492 L 0 492 Z M 0 175 " clip-rule="nonzero"/></clipPath><clipPath id="id15"><path d="M 270.996094 135.839844 L 258.398438 536.140625 L -29.460938 527.085938 L -16.863281 126.78125 Z M 270.996094 135.839844 " clip-rule="nonzero"/></clipPath><clipPath id="id16"><path d="M 270.996094 135.839844 L 258.398438 536.140625 L -29.460938 527.085938 L -16.863281 126.78125 Z M 270.996094 135.839844 " clip-rule="nonzero"/></clipPath><clipPath id="id17"><path d="M 270.996094 135.839844 L 258.398438 536.140625 L -29.460938 527.085938 L -16.863281 126.78125 Z M 270.996094 135.839844 " clip-rule="nonzero"/></clipPath><clipPath id="id18"><path d="M 0 135 L 263 135 L 263 531 L 0 531 Z M 0 135 " clip-rule="nonzero"/></clipPath><clipPath id="id19"><path d="M 270.996094 135.839844 L 258.398438 536.140625 L -29.460938 527.085938 L -16.863281 126.78125 Z M 270.996094 135.839844 " clip-rule="nonzero"/></clipPath><clipPath id="id20"><path d="M 270.996094 135.839844 L 258.398438 536.140625 L -29.460938 527.085938 L -16.863281 126.78125 Z M 270.996094 135.839844 " clip-rule="nonzero"/></clipPath><clipPath id="id21"><path d="M 270.996094 135.839844 L 258.398438 536.140625 L -29.460938 527.085938 L -16.863281 126.78125 Z M 270.996094 135.839844 " clip-rule="nonzero"/></clipPath><clipPath id="id22"><path d="M 1380 197.738281 L 1440 197.738281 L 1440 492 L 1380 492 Z M 1380 197.738281 " clip-rule="nonzero"/></clipPath><clipPath id="id23"><path d="M 548 0 L 990 0 L 990 94 L 548 94 Z M 548 0 " clip-rule="nonzero"/></clipPath><clipPath id="id24"><path d="M 767.734375 -283.519531 L 1033.277344 -8.214844 L 767.148438 248.476562 L 501.605469 -26.832031 Z M 767.734375 -283.519531 " clip-rule="nonzero"/></clipPath><clipPath id="id25"><path d="M 767.734375 -283.519531 L 1033.277344 -8.214844 L 767.148438 248.476562 L 501.605469 -26.832031 Z M 767.734375 -283.519531 " clip-rule="nonzero"/></clipPath><clipPath id="id26"><path d="M 767.734375 -283.519531 L 1033.277344 -8.214844 L 767.148438 248.476562 L 501.605469 -26.832031 Z M 767.734375 -283.519531 " clip-rule="nonzero"/></clipPath><clipPath id="id27"><path d="M 645 180 L 897 180 L 897 362.871094 L 645 362.871094 Z M 645 180 " clip-rule="nonzero"/></clipPath></defs><rect x="-144" width="1728" fill="rgb(100%, 100%, 100%)" y="-73.5" height="882" fill-opacity="1"/><rect x="-144" width="1728" fill="rgb(100%, 100%, 100%)" y="-73.5" height="882" fill-opacity="1"/><rect x="-144" width="1728" fill="rgb(100%, 100%, 100%)" y="-73.5" height="882" fill-opacity="1"/><rect x="-144" width="1728" fill="rgb(100%, 100%, 100%)" y="-73.5" height="882" fill-opacity="1"/><path fill="rgb(36.079407%, 45.098877%, 63.919067%)" d="M 1164.433594 782.199219 C 1162.449219 780.949219 1158.40625 754.003906 1155.40625 722.3125 C 1149.410156 658.671875 1152.925781 632.855469 1170.105469 614.300781 C 1183.074219 600.285156 1206.972656 596.316406 1221.421875 605.785156 C 1243.054688 619.976562 1246.824219 631.636719 1251.371094 698.367188 C 1253.746094 733.167969 1256.203125 765.757812 1256.828125 770.777344 C 1257.898438 779.253906 1254.6875 780.097656 1213 782.203125 C 1188.257812 783.46875 1166.390625 783.46875 1164.433594 782.203125 Z M 1164.433594 782.199219 " fill-opacity="1" fill-rule="nonzero"/><path fill="rgb(81.959534%, 61.178589%, 30.979919%)" d="M 1124.808594 755.914062 C 1116.484375 687.992188 1124.957031 618.140625 1144.289062 595.125 C 1160.042969 576.375 1190.417969 562.820312 1216.65625 562.820312 C 1235.921875 562.820312 1240.539062 564.820312 1253.902344 579.015625 C 1262.285156 587.910156 1271.183594 602.816406 1273.664062 612.136719 C 1280.660156 638.402344 1291.09375 703.082031 1294.640625 742.21875 C 1297.710938 775.863281 1297.410156 777.628906 1288.558594 777.628906 C 1277.894531 777.628906 1276.46875 772.71875 1269.382812 711.363281 C 1262.714844 653.707031 1252.136719 608.136719 1242.433594 595.339844 C 1236.121094 586.976562 1229.839844 584.425781 1215.585938 584.425781 C 1194.59375 584.425781 1157.398438 603.625 1153.390625 616.53125 C 1145.773438 640.996094 1141.546875 698.386719 1144.273438 739.933594 C 1147.273438 785.164062 1147.058594 786.769531 1137.980469 786.769531 C 1129.804688 786.769531 1128.097656 782.792969 1124.816406 755.914062 Z M 1124.808594 755.914062 " fill-opacity="1" fill-rule="nonzero"/><path fill="rgb(72.158813%, 45.098877%, 24.708557%)" d="M 1052.644531 770.359375 C 1044.4375 750.703125 1048.667969 739.914062 1068.644531 729.582031 C 1085.664062 720.757812 1085.644531 715.957031 1068.503906 699.9375 C 1050.554688 683.152344 1050.648438 670.277344 1068.765625 663.960938 L 1082.734375 659.101562 L 1071.050781 641.886719 C 1054.65625 617.746094 1055.945312 609.820312 1077.636719 601.140625 C 1087.675781 597.101562 1095.902344 593.261719 1095.902344 592.585938 C 1095.902344 591.910156 1090.53125 579.605469 1083.964844 565.265625 C 1069.925781 534.539062 1072.730469 528.964844 1100.824219 531.644531 L 1120.230469 533.5 L 1131.644531 507.019531 C 1145.148438 475.703125 1152.585938 473.789062 1176.257812 495.488281 L 1192.542969 510.433594 L 1211.183594 493.199219 C 1239.59375 466.953125 1255.703125 470.808594 1255.703125 503.859375 L 1255.703125 517.304688 L 1273.789062 508.058594 C 1294.519531 497.484375 1313.035156 496.074219 1316.386719 504.855469 C 1317.671875 508.164062 1316.941406 520 1314.796875 531.140625 C 1308.574219 563.390625 1308.648438 563.570312 1326.429688 560.25 C 1347.941406 556.195312 1350.847656 565.265625 1338.453125 597.691406 C 1333.117188 611.640625 1328.75 623.886719 1328.75 624.921875 C 1328.75 625.960938 1334.992188 626.796875 1342.589844 626.796875 C 1361.125 626.796875 1364.261719 637.191406 1352.222656 658.660156 C 1340.289062 679.886719 1340.199219 681.652344 1351.027344 681.652344 C 1355.734375 681.652344 1362.230469 684.832031 1365.4375 688.703125 C 1370.273438 694.546875 1369.628906 697.976562 1361.65625 708.796875 L 1352.007812 721.828125 L 1361.585938 724.347656 C 1370.128906 726.582031 1370.84375 729.113281 1368.257812 748.042969 C 1364.707031 773.988281 1362.601562 777.628906 1351.316406 777.628906 C 1344.265625 777.628906 1342.445312 774.433594 1342.445312 761.933594 C 1342.445312 748.238281 1340.875 746.058594 1329.945312 744.8125 C 1313.730469 742.9375 1311.140625 729.828125 1324.253906 715.867188 L 1334.257812 705.207031 L 1321.238281 703.707031 C 1303.8125 701.722656 1302.277344 688.296875 1317.011719 666.585938 C 1323.324219 657.277344 1328.035156 649.492188 1327.484375 649.316406 C 1326.929688 649.117188 1322.609375 648.226562 1317.886719 647.335938 C 1301.082031 644.171875 1299.515625 637.476562 1309.429688 611.546875 L 1318.902344 586.726562 L 1305.628906 591.746094 C 1284.988281 599.550781 1280.570312 592.015625 1286.988281 560 C 1289.867188 545.628906 1291.523438 533.160156 1290.648438 532.289062 C 1289.773438 531.410156 1281.085938 537.054688 1271.332031 544.824219 L 1253.601562 558.929688 L 1245.515625 548.945312 C 1241.078125 543.445312 1237.433594 533.019531 1237.433594 525.753906 C 1237.433594 518.484375 1235.53125 512.542969 1233.191406 512.542969 C 1227.824219 512.542969 1215.964844 524.339844 1209.859375 535.75 C 1203.171875 548.25 1198.730469 546.929688 1175.703125 525.679688 L 1155.28125 506.824219 L 1148.304688 524.535156 C 1137.101562 553.039062 1134.390625 555.964844 1119.304688 555.914062 C 1102.425781 555.875 1102.375 556.109375 1114.429688 575.910156 C 1127.007812 596.550781 1124.507812 608.855469 1106.496094 614.996094 C 1084.878906 622.390625 1084.25 625.015625 1099.859375 642.816406 C 1107.726562 651.777344 1114.164062 661.136719 1114.164062 663.601562 C 1114.164062 666.070312 1107.90625 671.886719 1100.253906 676.546875 L 1086.339844 685.011719 L 1098.308594 699.242188 C 1114.289062 718.257812 1111.847656 731.792969 1090.316406 743.332031 C 1074.277344 751.914062 1073.480469 753.402344 1076.0625 769.613281 C 1078.507812 784.894531 1077.757812 786.769531 1069.140625 786.769531 C 1062.382812 786.769531 1057.441406 781.859375 1052.644531 770.359375 Z M 1052.644531 770.359375 " fill-opacity="1" fill-rule="nonzero"/><g clip-path="url(#id1)"><path fill="rgb(93.328857%, 65.879822%, 38.819885%)" d="M 1016.917969 788.453125 C 1015.167969 786.703125 1013.757812 744.972656 1013.792969 695.738281 C 1013.921875 558.167969 1025.171875 522.089844 1081.257812 479.574219 C 1129.148438 443.292969 1188.40625 431.484375 1258.128906 444.398438 C 1345.601562 460.582031 1397.957031 556.25 1403.578125 710.222656 L 1405.878906 773.054688 L 1383.539062 773.054688 L 1383.484375 714.792969 C 1383.417969 621.925781 1361.8125 548.929688 1320.894531 503.269531 C 1292.285156 471.378906 1264.601562 460.914062 1207.753906 460.484375 C 1155.742188 460.113281 1125.683594 469.257812 1090.488281 496.144531 C 1042.417969 532.898438 1031.355469 572.894531 1032.25 706.792969 C 1032.679688 773.628906 1031.59375 789.308594 1026.449219 790.363281 C 1022.957031 791.074219 1018.679688 790.214844 1016.90625 788.453125 Z M 1016.917969 788.453125 " fill-opacity="1" fill-rule="nonzero"/></g><g clip-path="url(#id2)"><g clip-path="url(#id3)"><g clip-path="url(#id4)"><g clip-path="url(#id5)"><path fill="rgb(36.079407%, 45.098877%, 63.919067%)" d="M 6.417969 271.246094 C 34.640625 271.167969 57.886719 273.019531 71 276.359375 C 84.285156 279.757812 89.769531 300.609375 88.445312 342.691406 C 87.105469 385.199219 86.996094 385.265625 23.902344 385.28125 L -18.367188 385.296875 L -17.824219 328.292969 L -17.289062 271.304688 Z M 6.417969 271.246094 " fill-opacity="1" fill-rule="nonzero"/></g></g></g></g><g clip-path="url(#id6)"><g clip-path="url(#id7)"><g clip-path="url(#id8)"><g clip-path="url(#id9)"><path fill="rgb(69.018555%, 61.959839%, 50.979614%)" d="M 32.09375 243.617188 C 87.679688 248.773438 107.335938 254.445312 113.597656 267.085938 C 119.632812 279.257812 122.875 352.835938 118.574219 379.671875 C 116.65625 391.5625 112.632812 403.597656 109.597656 406.445312 C 103.058594 412.582031 -12.847656 415.929688 -18.625 410.160156 C -20.734375 408.039062 -21.144531 403.1875 -19.550781 399.367188 C -17.128906 393.625 -7.75 392.714844 34.757812 394.050781 C 102.886719 396.195312 102.421875 396.597656 100.339844 333.992188 C 99.488281 308.222656 97.050781 283.613281 94.921875 279.324219 C 90.71875 270.847656 64.976562 264.953125 26.34375 263.636719 C -5.582031 262.558594 -16.628906 258.496094 -16.296875 247.980469 C -16.03125 239.554688 -13.792969 239.34375 32.089844 243.609375 Z M 32.09375 243.617188 " fill-opacity="1" fill-rule="nonzero"/></g></g></g></g><g clip-path="url(#id10)"><g clip-path="url(#id11)"><g clip-path="url(#id12)"><g clip-path="url(#id13)"><path fill="rgb(81.959534%, 61.178589%, 30.979919%)" d="M 19.640625 211.417969 C 156.546875 227.707031 151.585938 225.429688 157.320312 274.449219 C 166.183594 350.453125 155.640625 433.09375 135.453125 445.578125 C 125.207031 451.941406 96.675781 452.738281 25.640625 448.699219 C -14.488281 446.417969 -18.019531 445.488281 -17.761719 437.363281 C -17.5 428.960938 -13.769531 428.570312 54.921875 429.554688 L 127.316406 430.609375 L 133.976562 410.632812 C 142.121094 386.230469 144.457031 328.738281 139.152344 283.394531 C 135.449219 251.71875 134.417969 249.40625 121.757812 244.539062 C 114.359375 241.695312 101.03125 239.152344 92.144531 238.898438 C 83.269531 238.617188 55.410156 235.355469 30.226562 231.636719 C -10.507812 225.640625 -15.535156 223.902344 -15.289062 216.078125 C -15.027344 207.832031 -12.847656 207.550781 19.644531 211.414062 Z M 19.640625 211.417969 " fill-opacity="1" fill-rule="nonzero"/></g></g></g></g><g clip-path="url(#id14)"><g clip-path="url(#id15)"><g clip-path="url(#id16)"><g clip-path="url(#id17)"><path fill="rgb(93.328857%, 65.879822%, 38.819885%)" d="M -15.945312 176.070312 C -12.851562 173.167969 75.171875 178.289062 123.429688 184.167969 C 155.265625 188.046875 184.855469 202.730469 197.140625 220.75 C 207.496094 235.953125 210.476562 261.035156 212.046875 346.074219 C 212.878906 391.980469 211.371094 418.621094 207.015625 435.621094 C 191.417969 496.289062 184.8125 498.289062 49.234375 483.402344 C -13.738281 476.480469 -18.953125 475.226562 -18.699219 467.105469 C -18.402344 457.703125 -7.101562 458.042969 120.285156 471.257812 C 177.640625 477.1875 184.085938 470.175781 192.757812 392.292969 C 196.160156 361.558594 189.421875 249.242188 183.40625 236.578125 C 180.25 229.960938 168.179688 219.5 156.574219 213.375 C 137.742188 203.425781 127.328125 201.734375 59.402344 197.523438 C -4.535156 193.570312 -16.871094 191.710938 -17.808594 185.84375 C -18.40625 182.003906 -17.570312 177.613281 -15.941406 176.070312 Z M -15.945312 176.070312 " fill-opacity="1" fill-rule="nonzero"/></g></g></g></g><g clip-path="url(#id18)"><g clip-path="url(#id19)"><g clip-path="url(#id20)"><g clip-path="url(#id21)"><path fill="rgb(72.158813%, 45.098877%, 24.708557%)" d="M -12.945312 139.171875 C 5.773438 128.40625 151.203125 140.585938 203.324219 157.296875 C 252.113281 172.921875 263.375 209.113281 262.175781 346.335938 C 261.363281 440.222656 261.136719 442.289062 248.183594 478.90625 C 237.296875 509.703125 232.933594 516.890625 222.816406 520.707031 C 198.582031 529.828125 154.953125 532.34375 67.976562 529.625 L -20.578125 526.839844 L -19.902344 505.359375 L 88.894531 506.640625 C 148.726562 507.355469 202.152344 506.597656 207.621094 504.964844 C 214.914062 502.816406 220.375 494.183594 228.101562 472.628906 C 237.382812 446.742188 238.929688 433.242188 241.039062 359.550781 C 244.457031 239.761719 234.566406 190.855469 204.695312 179.984375 C 174.503906 168.988281 91.164062 157.550781 38.210938 157.148438 C -8.601562 156.78125 -15.722656 155.765625 -16.746094 149.375 C -17.410156 145.324219 -15.691406 140.710938 -12.9375 139.132812 Z M -12.945312 139.171875 " fill-opacity="1" fill-rule="nonzero"/></g></g></g></g><path fill="rgb(36.468506%, 45.098877%, 64.309692%)" d="M 1207.390625 324.46875 C 1168.632812 312.070312 1140.722656 281.101562 1139.632812 249.257812 C 1139.355469 241.054688 1141.503906 219.902344 1144.425781 202.234375 C 1149.445312 171.742188 1149.277344 168.855469 1140.984375 145.214844 C 1123.933594 96.65625 1122.902344 89.128906 1130.507812 69.1875 C 1140.015625 44.300781 1174.410156 8.324219 1203.519531 -7.191406 C 1225.609375 -18.957031 1231.722656 -20.261719 1280.28125 -23.488281 C 1339.082031 -27.40625 1372.1875 -37.515625 1394.0625 -58.238281 C 1411.390625 -74.660156 1430.46875 -83.292969 1442.757812 -80.265625 C 1477.996094 -71.601562 1504.816406 -38.480469 1508.917969 1.457031 C 1510.65625 18.308594 1508.828125 27.695312 1498.859375 53.472656 C 1471.945312 123.046875 1433.417969 173.523438 1380.605469 208.335938 C 1353.984375 225.878906 1340.589844 238.503906 1315.367188 269.734375 C 1272.140625 323.269531 1245.65625 336.695312 1207.390625 324.46875 Z M 1260.355469 299.660156 C 1266.792969 296.003906 1279.726562 283.359375 1289.097656 271.546875 C 1327.777344 222.820312 1342.507812 208.304688 1368.855469 192.910156 C 1406.875 170.714844 1441.867188 129.113281 1467.964844 75.148438 C 1493.144531 23.074219 1495.523438 4.839844 1481.007812 -24.824219 C 1472.621094 -41.96875 1467.058594 -47.914062 1453.1875 -54.625 C 1433.585938 -64.121094 1426.964844 -62.414062 1405.859375 -42.476562 C 1392.527344 -29.878906 1353.507812 -12.734375 1330.589844 -9.417969 C 1322.292969 -8.203125 1296.808594 -5.699219 1273.9375 -3.824219 C 1225.886719 0.0898438 1204.042969 9 1176.773438 35.824219 C 1159.539062 52.765625 1144.484375 77.589844 1144.484375 89.050781 C 1144.484375 92.570312 1150.136719 112.199219 1157.066406 132.664062 L 1169.648438 169.867188 L 1162.996094 208.488281 C 1155.039062 254.617188 1158.585938 270.640625 1180.707031 288.554688 C 1208.21875 310.828125 1234.335938 314.46875 1260.355469 299.660156 Z M 1196.34375 282.332031 C 1184.332031 269.550781 1182.105469 252.820312 1187.652344 217.183594 C 1192.027344 189.023438 1191.707031 183.171875 1184.210938 153.476562 C 1169.894531 96.886719 1174.378906 66.53125 1199.925781 47.097656 C 1230.832031 23.609375 1236.5625 22.136719 1298.820312 21.734375 L 1356.828125 21.351562 L 1377.457031 7.359375 C 1423.464844 -23.828125 1439.085938 -26.144531 1454.003906 -3.949219 C 1481.515625 37.019531 1447.273438 104.105469 1381.878906 137.347656 C 1352.632812 152.21875 1340.390625 165.121094 1302.691406 220.730469 C 1266.714844 273.820312 1246.546875 291.363281 1221.539062 291.363281 C 1209.1875 291.363281 1202.613281 289 1196.34375 282.332031 Z M 1234.519531 269.933594 C 1249.25 262.332031 1265.332031 243.480469 1294.367188 199.855469 C 1326.503906 151.542969 1341.910156 135.949219 1373.246094 120.066406 C 1416.921875 97.898438 1443.3125 64.273438 1443.3125 30.785156 C 1443.3125 21.382812 1440.851562 10.324219 1437.84375 6.207031 C 1433.003906 -0.414062 1431.082031 -0.675781 1421.128906 3.808594 C 1414.953125 6.605469 1401.035156 14.65625 1390.222656 21.691406 C 1362.402344 39.816406 1360.621094 40.199219 1303.785156 39.96875 C 1256.65625 39.769531 1250.984375 40.554688 1232.0625 49.800781 C 1220.753906 55.332031 1207.929688 64.410156 1203.550781 69.972656 C 1192.890625 83.535156 1193.074219 111.125 1204.117188 153.230469 C 1211.90625 182.847656 1212.289062 188.839844 1208.113281 213.265625 C 1201.351562 252.683594 1202.058594 262.40625 1212.199219 269.519531 C 1222.765625 276.910156 1221.09375 276.878906 1234.519531 269.933594 Z M 1234.519531 269.933594 " fill-opacity="1" fill-rule="nonzero"/><path fill="rgb(36.468506%, 45.098877%, 64.309692%)" d="M 138.148438 923.417969 C 127.628906 922.144531 122.75 919.328125 120.507812 913.261719 C 113.804688 895.113281 103.496094 790.753906 103.210938 738.125 C 102.929688 685.480469 103.453125 681.378906 113.207031 660.546875 C 131.324219 621.859375 154.410156 598.738281 196.242188 577.363281 C 217.488281 566.523438 253.152344 566.445312 266.828125 577.199219 C 276.941406 585.167969 292.472656 620.601562 292.488281 635.730469 C 292.488281 643.023438 295 641.601562 310.664062 625.410156 C 341.410156 593.660156 385.144531 579.597656 406.539062 594.601562 C 418.894531 603.273438 425.164062 617.578125 432.554688 654.0625 C 438.074219 681.363281 438.777344 701.222656 437.042969 782.21875 C 434.828125 885.003906 432.898438 895.800781 415.484375 902.449219 C 409.964844 904.546875 382.179688 908.261719 353.753906 910.6875 C 325.3125 913.113281 289.988281 916.617188 275.25 918.476562 C 241.378906 922.714844 157.34375 925.753906 138.148438 923.417969 Z M 138.148438 923.417969 " fill-opacity="1" fill-rule="nonzero"/><path fill="rgb(72.549438%, 45.098877%, 25.099182%)" d="M 336.1875 159.226562 C 336.1875 153.402344 354.886719 140.03125 363.019531 140.03125 C 372.105469 140.03125 369.132812 147.378906 356.535156 156.050781 C 342.921875 165.429688 336.1875 166.480469 336.1875 159.226562 Z M 291.402344 149.34375 C 288.523438 141.828125 313.222656 121.71875 321.457031 124.882812 C 328.066406 127.414062 326.070312 130.988281 311.636719 142.492188 C 296.464844 154.570312 293.753906 155.496094 291.402344 149.34375 Z M 258.296875 138.800781 C 254.0625 133.703125 255.683594 131.441406 270.769531 121.445312 C 295.164062 105.277344 302.085938 114.273438 278.792969 131.871094 C 262.511719 144.171875 262.699219 144.109375 258.296875 138.800781 Z M 221.886719 123.863281 C 220.960938 122.371094 220.898438 119.035156 221.75 116.460938 C 223.777344 110.289062 249.410156 91.597656 255.851562 91.597656 C 264.789062 91.597656 261.523438 101.226562 250 108.859375 C 244.011719 112.824219 237.085938 118.4375 234.605469 121.316406 C 229.691406 127.070312 224.5 128.097656 221.886719 123.863281 Z M 396.617188 121.078125 C 394.199219 117.164062 398.949219 112.128906 414.378906 102.214844 C 427.585938 93.742188 437.011719 93.082031 434.027344 100.851562 C 432.050781 106.011719 407.375 123.882812 402.214844 123.882812 C 400.09375 123.882812 397.570312 122.621094 396.617188 121.078125 Z M 356.359375 113.140625 C 352.828125 107.410156 393.472656 77.890625 398.277344 82.695312 C 402.78125 87.195312 398.210938 93.375 381.949219 104.792969 C 366.160156 115.882812 359.414062 118.082031 356.359375 113.140625 Z M 324.535156 95.183594 C 321.300781 91.945312 322.632812 88.75 330.136719 81.769531 C 339.496094 73.0625 357.070312 63.980469 360.476562 66.082031 C 366.066406 69.542969 362.429688 74.839844 347.070312 85.679688 C 330.882812 97.105469 327.773438 98.421875 324.535156 95.183594 Z M 437.472656 81.726562 C 433.269531 77.523438 436.421875 72.550781 447.347656 66.148438 C 461.363281 57.925781 465.261719 57.589844 465.261719 64.589844 C 465.261719 67.683594 461.089844 72.707031 455.226562 76.703125 C 444.960938 83.671875 440.644531 84.902344 437.472656 81.726562 Z M 397.140625 70.960938 C 391.613281 65.441406 399.695312 54.183594 409.304688 54.003906 C 417.660156 53.847656 417.953125 60.019531 409.894531 66.460938 C 401.492188 73.191406 399.914062 73.746094 397.140625 70.960938 Z M 256.953125 67.535156 C 254.703125 63.898438 269.632812 47.78125 280.832031 41.746094 C 288.605469 37.550781 291 37.246094 293.785156 40.074219 C 296.550781 42.882812 294.394531 46.027344 282.398438 56.71875 C 268.097656 69.457031 260.210938 72.8125 256.953125 67.535156 Z M 311.089844 65.578125 C 306.613281 61.101562 310.207031 53.722656 320.574219 46.078125 C 333.078125 36.878906 337.5625 35.859375 339.789062 41.671875 C 340.734375 44.132812 336.46875 49.609375 328.277344 56.476562 C 314.449219 68.058594 313.871094 68.363281 311.089844 65.578125 Z M 432.996094 43.1875 C 432.996094 36.394531 460.40625 17.535156 466.742188 19.964844 C 473.234375 22.457031 470.355469 27.25 455.648438 38.433594 C 440.800781 49.738281 432.996094 51.367188 432.996094 43.1875 Z M 369.480469 41.945312 C 368.648438 39.792969 368.777344 36.742188 369.753906 35.164062 C 372.160156 31.265625 396.792969 18.945312 402.171875 18.945312 C 410.378906 18.945312 404.808594 28.25 391.308594 37.089844 C 376.558594 46.742188 371.726562 47.8125 369.480469 41.945312 Z M 299.363281 25.273438 C 297.429688 20.238281 304.910156 13.5625 312.496094 13.5625 C 318.714844 13.5625 318.808594 21.277344 312.652344 25.957031 C 306.246094 30.824219 301.390625 30.582031 299.363281 25.273438 Z M 245.628906 22.71875 C 243.671875 17.628906 257.960938 2.796875 264.8125 2.796875 C 275.980469 2.796875 271.042969 13.40625 255.671875 22.464844 C 247.90625 27.050781 247.296875 27.058594 245.628906 22.71875 Z M 346.042969 17.148438 C 341.933594 13.035156 344.949219 7.886719 356.734375 -1.113281 C 369.386719 -10.785156 381.898438 -13.707031 381.898438 -7.011719 C 381.898438 -3.488281 354.296875 18.945312 349.96875 18.945312 C 348.792969 18.945312 347.027344 18.136719 346.042969 17.148438 Z M 435.65625 6.800781 C 431.359375 1.621094 435.140625 -3.164062 450.847656 -12.371094 C 470.300781 -23.777344 475.125 -13.949219 456.519531 -0.808594 C 439.847656 10.976562 439.289062 11.1875 435.65625 6.800781 Z M 311.980469 -7.875 C 311.980469 -14.066406 340.871094 -34.878906 349.488281 -34.878906 C 359.605469 -34.878906 355.191406 -27.417969 337.722656 -14.925781 C 318.9375 -1.511719 311.980469 0.390625 311.980469 -7.875 Z M 266.273438 -21.382812 C 266.273438 -27.53125 294.5 -51.019531 301.894531 -51.019531 C 306.75 -51.027344 308.011719 -46.464844 304.542969 -41.429688 C 301.253906 -36.636719 272.722656 -16.042969 269.382812 -16.042969 C 267.667969 -16.042969 266.273438 -18.449219 266.273438 -21.382812 Z M 421.355469 -20.511719 C 414.308594 -27.5625 434.332031 -48.335938 448.1875 -48.335938 C 458.167969 -48.335938 456.035156 -39.464844 444.417969 -32.632812 C 438.871094 -29.363281 431.820312 -24.894531 428.753906 -22.695312 C 425.683594 -20.5 422.355469 -19.511719 421.355469 -20.511719 Z M 378.273438 -39.402344 C 373.523438 -44.152344 377.683594 -51.207031 389.871094 -59.039062 C 402.804688 -67.332031 408.792969 -67.871094 408.792969 -60.699219 C 408.792969 -54.707031 381.800781 -35.867188 378.273438 -39.402344 Z M 342.355469 -63.601562 C 340.15625 -69.320312 356.230469 -83.3125 364.992188 -83.3125 C 374.585938 -83.3125 372.367188 -76.164062 359.980469 -67.1875 C 347.144531 -57.871094 344.738281 -57.386719 342.355469 -63.601562 Z M 342.355469 -63.601562 " fill-opacity="1" fill-rule="nonzero"/><g clip-path="url(#id22)"><path fill="rgb(72.549438%, 45.098877%, 25.099182%)" d="M 1478.894531 487.835938 C 1435.292969 475.679688 1410.625 457.085938 1393.609375 423.574219 C 1368.027344 373.160156 1378.953125 319.203125 1426.605469 260.695312 C 1447.800781 234.667969 1460.699219 224.082031 1487.667969 210.515625 C 1511.527344 198.523438 1514.398438 197.804688 1538.679688 197.804688 C 1560.136719 197.804688 1566.925781 199.050781 1579.4375 205.308594 C 1594.984375 213.082031 1607.796875 230.121094 1607.890625 243.167969 C 1607.972656 252.792969 1617.988281 263.617188 1642.621094 280.640625 C 1661.835938 293.925781 1666.257812 298.730469 1674.289062 315.039062 C 1682.789062 332.3125 1683.527344 336.109375 1682.542969 357.589844 C 1681.640625 377.472656 1679.730469 384.695312 1670.40625 403.539062 C 1657.183594 430.257812 1647.824219 439.730469 1613.308594 461.328125 C 1570.6875 488 1517.246094 498.542969 1478.894531 487.835938 Z M 1478.894531 487.835938 " fill-opacity="1" fill-rule="nonzero"/></g><g clip-path="url(#id23)"><g clip-path="url(#id24)"><g clip-path="url(#id25)"><g clip-path="url(#id26)"><path fill="rgb(36.468506%, 45.098877%, 64.309692%)" d="M 562.371094 26.3125 C 544.425781 -9.890625 544.328125 -36.859375 562.035156 -70.269531 C 577.878906 -100.203125 607.363281 -128.761719 645.476562 -151.109375 C 680.601562 -171.707031 690.273438 -174.398438 736.421875 -176.441406 C 765.480469 -177.722656 780.144531 -176.34375 796.542969 -170.820312 C 818.066406 -163.550781 818.472656 -163.238281 851.261719 -129.445312 C 886.15625 -93.484375 903.144531 -81.628906 915.253906 -84.792969 C 918.765625 -85.703125 929.492188 -86.460938 939.085938 -86.441406 C 956.503906 -86.433594 956.550781 -86.40625 971.050781 -69.570312 C 982.292969 -56.511719 986.203125 -49.289062 988.375 -37.488281 C 991.667969 -19.628906 986.542969 6.550781 974.925781 31.121094 C 960.042969 62.597656 923.035156 88.019531 885.386719 92.648438 C 863.332031 95.359375 818.96875 90.1875 791.910156 81.769531 C 760.472656 71.984375 748.476562 71.75 702.472656 80.066406 C 661.257812 87.503906 632.460938 87.304688 614.238281 79.429688 C 599.792969 73.199219 570.976562 43.6875 562.371094 26.3125 Z M 623.585938 66.535156 C 642.152344 73.6875 656.734375 73.199219 712.3125 63.550781 C 753.558594 56.382812 761.949219 56.824219 798.332031 68.132812 C 835.46875 79.679688 880.390625 81.332031 906.050781 72.085938 C 946.015625 57.6875 972.113281 21.59375 973.484375 -21.25 C 974.644531 -56.933594 955.25 -76.878906 924.878906 -71.261719 C 898.386719 -66.359375 894.59375 -68.429688 849.023438 -112.761719 C 809.535156 -151.191406 807.679688 -152.601562 789.445312 -158.320312 C 769.167969 -164.679688 704.128906 -162.523438 684.417969 -154.839844 C 658.261719 -144.648438 621.195312 -118.941406 599.230469 -95.753906 C 580.101562 -75.5625 576.605469 -70.191406 569.421875 -49.734375 C 562.847656 -31.046875 562.039062 -23.121094 565.265625 -8.6875 C 572.804688 25.015625 597.070312 56.332031 623.585938 66.535156 Z M 576.550781 -19.007812 C 577 -43.261719 588.597656 -64.878906 615.230469 -91.078125 C 634.808594 -110.34375 658.085938 -123.101562 696.0625 -135.40625 C 717.28125 -142.277344 755.039062 -141.167969 777.367188 -133.007812 C 794.945312 -126.585938 795.449219 -126.15625 801.632812 -112.3125 C 817.261719 -77.3125 854.789062 -53.25 903.832031 -46.777344 C 945.28125 -41.308594 957.90625 -26.910156 947.566406 3.117188 C 941.683594 20.171875 921.410156 40.375 904.277344 46.242188 C 886.003906 52.484375 844.40625 50.472656 819.03125 42.109375 C 791.976562 33.183594 750.140625 31.964844 710.464844 38.9375 C 649.351562 49.675781 617.179688 43.117188 589.398438 14.257812 C 576.851562 1.230469 576.210938 -0.417969 576.550781 -19.007812 Z M 636.277344 27.597656 C 649.21875 30.957031 667.304688 30.546875 702.140625 26.132812 C 762.703125 18.460938 789.90625 19.199219 825.65625 29.484375 C 854.394531 37.75 880.433594 39.117188 899.683594 33.371094 C 914.347656 28.992188 931.847656 11.289062 935.570312 -2.945312 C 941.066406 -23.949219 933.492188 -30.199219 897.742188 -34.179688 C 874.828125 -36.734375 856.914062 -42.851562 834.242188 -55.84375 C 816.144531 -66.210938 802.746094 -81.121094 788.679688 -106.507812 C 781.667969 -119.152344 780.96875 -119.582031 760.042969 -123.828125 C 737.574219 -128.378906 717.210938 -127.632812 697.058594 -121.527344 C 639.539062 -104.089844 592.691406 -60.273438 590.003906 -21.398438 C 588.824219 -4.207031 588.945312 -3.9375 603.625 9.460938 C 614.738281 19.621094 622.867188 24.128906 636.277344 27.597656 Z M 605.902344 -26.773438 C 606.386719 -36.621094 609.132812 -40.511719 633.351562 -65.894531 C 655.386719 -88.957031 663.003906 -95.285156 675.273438 -100.707031 C 700.097656 -111.675781 724.605469 -114.5 743.460938 -108.558594 C 758.960938 -103.695312 763.210938 -100.578125 787.203125 -76.507812 L 813.773438 -49.851562 L 845.097656 -39.671875 C 871.773438 -30.996094 877.554688 -27.933594 884.117188 -19.019531 C 893 -6.929688 892.40625 2.421875 882.140625 12.324219 C 868.96875 25.027344 832.695312 24.34375 794.238281 10.664062 C 763.960938 -0.105469 745.335938 -2.511719 727.234375 1.984375 C 702.183594 8.214844 657.535156 9.78125 638.28125 5.097656 C 616.863281 -0.09375 605.152344 -11.632812 605.902344 -26.773438 Z M 663.492188 -7.90625 C 678.921875 -7.121094 703.136719 -8.648438 717.300781 -11.300781 C 746.714844 -16.804688 762.828125 -15.871094 787.707031 -7.203125 C 812.308594 1.367188 847.164062 8.300781 857.429688 6.6875 C 862.199219 5.929688 868.503906 3.011719 871.425781 0.195312 C 879.972656 -8.050781 867.332031 -17.476562 831.828125 -29.332031 L 800.320312 -39.84375 L 774.976562 -66.050781 C 751.253906 -90.570312 748.640625 -92.476562 734.214844 -95.6875 C 723.039062 -98.164062 712.484375 -97.085938 695.835938 -91.738281 C 674.25 -84.828125 671.472656 -83.007812 649.347656 -61.335938 C 622.835938 -35.34375 617.6875 -27.726562 621.960938 -20.835938 C 627.554688 -11.8125 635.476562 -9.355469 663.5 -7.917969 Z M 633.957031 -29.527344 C 635.011719 -31.773438 649.925781 -45.453125 667.117188 -59.945312 C 702.960938 -90.144531 711.089844 -93.226562 732.59375 -84.707031 C 752.300781 -76.898438 763.578125 -64.332031 763.324219 -50.441406 C 763.019531 -33.617188 754.367188 -27.628906 729.824219 -27.246094 C 718.164062 -27.058594 700.417969 -23.90625 690.417969 -20.25 C 664.445312 -10.742188 646.792969 -10.171875 638.667969 -18.597656 C 635.027344 -22.375 632.917969 -27.292969 633.957031 -29.527344 Z M 685.519531 -34.035156 C 700.84375 -38.929688 718.449219 -42.226562 724.621094 -41.367188 C 748.566406 -38.035156 756.957031 -47.933594 741.808594 -61.652344 C 728.703125 -73.527344 715.164062 -76.945312 703.820312 -71.199219 C 689.273438 -63.84375 650.511719 -29.035156 654.46875 -26.882812 C 656.21875 -25.921875 670.191406 -29.140625 685.519531 -34.035156 Z M 685.519531 -34.035156 " fill-opacity="1" fill-rule="nonzero"/></g></g></g></g><path fill="rgb(79.60968%, 59.999084%, 49.409485%)" d="M 709.820312 621.472656 C 672.152344 617.195312 630.871094 619.875 597.203125 639.375 C 563.273438 658.867188 538.261719 694.378906 531.453125 732.53125 C 524.65625 770.6875 536.207031 808.757812 541.144531 855.726562 L 541.144531 855.683594 C 543.46875 879.179688 544.320312 905.527344 547.929688 929.175781 C 551.539062 952.8125 557.707031 974.320312 573.148438 987.160156 C 588.710938 1000.101562 610.6875 1001.972656 634.394531 1000.613281 C 658.101562 999.25 684.144531 994.410156 708.753906 991.515625 C 757.960938 985.734375 804.09375 987.75 843.308594 968.269531 C 882.542969 948.789062 912.003906 908.574219 928.628906 863.28125 C 945.519531 817.996094 950.335938 766.5625 928.726562 728.375 L 928.726562 728.332031 C 906.824219 690.210938 861.042969 668.921875 821.480469 652.914062 L 821.480469 652.890625 L 820.21875 652.378906 L 820.023438 652.378906 C 781.355469 636.4375 747.035156 625.695312 709.929688 621.472656 Z M 708.242188 635.328125 C 744.171875 639.40625 777.429688 649.746094 816.085938 665.777344 L 816.21875 665.832031 C 855.160156 681.589844 897.855469 702.636719 916.601562 735.277344 C 935.054688 767.878906 931.511719 815.625 915.546875 858.40625 L 915.546875 858.449219 C 899.855469 901.21875 871.929688 938.480469 837.097656 955.785156 C 802.234375 973.101562 757.59375 971.75 707.101562 977.671875 C 681.863281 980.640625 655.945312 985.417969 633.566406 986.703125 C 611.1875 987.988281 592.9375 985.539062 582.03125 976.460938 L 582.03125 976.441406 C 571.308594 967.539062 565.078125 949.496094 561.652344 927.085938 C 558.238281 904.679688 557.378906 878.484375 554.976562 854.3125 L 554.976562 854.269531 C 549.886719 805.925781 539.152344 768.742188 545.167969 734.980469 C 551.179688 701.234375 574.039062 668.75 604.152344 651.457031 L 604.152344 651.433594 C 633.980469 634.152344 672.347656 631.246094 708.199219 635.328125 Z M 708.242188 635.328125 " fill-opacity="1" fill-rule="nonzero"/><g clip-path="url(#id27)"><path fill="rgb(72.158813%, 45.098877%, 24.708557%)" d="M 838.628906 257.46875 L 839.03125 257.378906 C 845.070312 256.242188 848.28125 254.972656 853.523438 251.785156 L 853.679688 251.71875 L 853.945312 251.539062 L 854.078125 251.472656 L 855.886719 254.414062 L 855.773438 254.503906 L 855.617188 254.59375 L 855.484375 254.683594 C 850.289062 257.804688 845.585938 259.722656 839.253906 260.882812 Z M 811.269531 259.140625 C 816.933594 259.164062 822.621094 259.074219 828.28125 258.675781 L 828.730469 262.128906 L 828.527344 262.152344 C 822.777344 262.554688 817 262.640625 811.25 262.621094 Z M 783.558594 258.292969 L 783.914062 258.292969 C 789.488281 258.539062 795.0625 258.761719 800.636719 258.941406 L 800.882812 258.941406 L 800.792969 262.417969 L 800.546875 262.417969 C 794.929688 262.242188 789.355469 262.019531 783.78125 261.773438 L 783.425781 261.75 Z M 755.777344 257.292969 C 761.484375 257.402344 767.171875 257.605469 772.878906 257.828125 L 773.144531 257.847656 L 773.011719 261.304688 L 772.746094 261.304688 C 767.058594 261.058594 761.375 260.859375 755.710938 260.769531 Z M 727.796875 258.25 L 728.109375 258.226562 L 728.664062 258.160156 C 734.21875 257.558594 739.722656 257.335938 745.296875 257.246094 L 745.34375 260.726562 C 739.703125 260.792969 734.105469 261.039062 728.507812 261.660156 L 728.195312 261.707031 Z M 703.046875 271.382812 L 703.113281 271.25 C 706.324219 264.648438 710.003906 262.441406 716.960938 260.367188 L 717.316406 260.257812 L 718.253906 263.601562 L 717.941406 263.691406 L 717.515625 263.824219 L 717.117188 263.9375 C 711.742188 265.695312 708.933594 267.367188 706.457031 272.320312 L 706.167969 272.898438 Z M 709.289062 297.289062 C 702.734375 294.257812 699.078125 289.261719 699.8125 281.859375 L 703.269531 282.238281 C 702.691406 288.148438 705.589844 291.738281 710.761719 294.144531 Z M 737.25 301.726562 L 736.847656 301.703125 C 731.296875 301.570312 725.789062 301.257812 720.304688 300.390625 L 719.902344 300.320312 L 719.703125 300.300781 L 720.304688 296.867188 L 720.460938 296.910156 L 720.863281 296.976562 C 726.300781 297.824219 731.832031 298.136719 737.339844 298.25 Z M 765.074219 301.480469 L 764.894531 301.480469 C 759.164062 301.546875 753.457031 301.703125 747.726562 301.75 L 747.683594 298.292969 C 753.414062 298.226562 759.144531 298.070312 764.851562 298.003906 L 765.03125 298.003906 Z M 792.074219 303.265625 L 791.941406 303.21875 C 787.191406 301.570312 780.703125 301.59375 775.621094 301.480469 L 775.441406 301.480469 L 775.507812 298.003906 L 775.6875 298.003906 C 781.105469 298.113281 787.703125 298.136719 792.789062 299.832031 L 793.101562 299.941406 L 793.234375 300.007812 Z M 807.949219 322.484375 C 806.878906 317.175781 804.113281 312.160156 800.210938 308.394531 L 802.597656 305.875 C 807.011719 310.109375 810.132812 315.792969 811.339844 321.769531 Z M 800.390625 346.160156 C 804.40625 342.414062 807.078125 337.621094 808.082031 332.226562 L 808.105469 332.183594 L 811.539062 332.761719 C 810.46875 338.847656 807.28125 344.46875 802.777344 348.679688 Z M 776.332031 357.042969 L 776.710938 356.976562 C 782.042969 355.949219 787.011719 354.476562 791.875 352.070312 L 792.296875 351.847656 L 792.273438 351.847656 L 793.902344 354.921875 L 793.878906 354.945312 L 793.433594 355.167969 C 788.171875 357.777344 782.710938 359.40625 776.980469 360.453125 Z M 748.933594 359.449219 C 753.792969 359.269531 758.675781 358.847656 763.535156 358.46875 L 766.1875 358.269531 L 766.457031 361.746094 C 760.792969 362.167969 755.152344 362.660156 749.488281 362.90625 L 749.066406 362.925781 Z M 721.953125 357.042969 C 727.304688 358.648438 732.902344 359.292969 738.453125 359.515625 L 738.652344 359.515625 L 738.519531 362.996094 C 732.566406 362.75 726.703125 362.082031 720.972656 360.363281 Z M 694.796875 350.398438 C 700.550781 351.3125 706.300781 352.558594 711.941406 354.054688 L 711.027344 357.421875 C 705.523438 355.925781 699.882812 354.722656 694.242188 353.832031 Z M 667.195312 348.191406 C 672.835938 348.191406 678.5 348.457031 684.117188 349.015625 L 684.363281 349.039062 L 684.007812 352.492188 L 683.582031 352.449219 C 678.121094 351.914062 672.65625 351.667969 667.195312 351.667969 Z M 658.921875 353.695312 L 659.835938 353.742188 C 708.710938 285.136719 611.769531 282.261719 658.921875 353.695312 Z M 881.636719 233.300781 L 882.550781 233.347656 C 931.425781 164.742188 834.480469 161.867188 881.636719 233.300781 Z M 862.460938 245.609375 C 865.339844 243.402344 868.082031 241.082031 870.914062 238.832031 C 872.585938 237.515625 875.304688 235.308594 877.488281 235.195312 L 877.601562 238.675781 C 877.488281 238.628906 876.644531 239.03125 876.554688 239.097656 C 874.992188 239.96875 873.453125 241.238281 872.074219 242.355469 C 869.574219 244.359375 867.144531 246.410156 864.582031 248.375 L 862.460938 245.609375 " fill-opacity="1" fill-rule="nonzero"/></g><g fill="rgb(0%, 0%, 0%)" fill-opacity="1"><g transform="translate(521.603363, 392.930035)"><g><path d="M 69.21875 -123.222656 C 68.792969 -124.296875 68.792969 -125.367188 68.578125 -127.082031 C 68.792969 -127.296875 68.792969 -127.726562 68.578125 -127.9375 L 67.292969 -129.011719 C 66.433594 -129.867188 65.363281 -130.726562 64.289062 -131.152344 C 63.648438 -131.582031 62.578125 -132.011719 61.71875 -132.4375 C 58.71875 -133.296875 56.148438 -133.9375 53.789062 -131.582031 C 52.074219 -129.867188 50.148438 -127.9375 48.21875 -126.222656 C 46.289062 -124.296875 44.359375 -121.511719 42.859375 -118.722656 L 34.503906 -103.292969 C 34.289062 -102.867188 33.859375 -102.867188 33.644531 -102.4375 L 31.929688 -98.792969 L 30.429688 -93.863281 C 30.214844 -93.007812 28.503906 -90.222656 28.074219 -90.007812 C 28.074219 -89.578125 22.929688 -76.507812 22.714844 -76.078125 C 21.859375 -74.792969 21.859375 -73.507812 21.429688 -72.21875 C 20.574219 -70.503906 19.929688 -68.578125 19.074219 -67.078125 C 18.214844 -64.078125 16.929688 -60.648438 16.074219 -57.433594 C 15 -54.648438 14.574219 -51.648438 13.929688 -49.289062 C 13.285156 -46.289062 13.074219 -45.21875 12.429688 -42.859375 C 12 -41.144531 12 -40.71875 12 -39.859375 L 10.714844 -32.789062 C 9.214844 -24.214844 9.214844 -22.074219 9 -19.289062 C 8.359375 -13.074219 8.359375 -9.429688 9 -4.070312 C 9.429688 -1.714844 9.859375 0.644531 10.5 2.570312 C 11.359375 4.5 11.785156 6.214844 12.859375 7.714844 C 14.144531 9.214844 15 10.5 16.074219 11.785156 C 16.714844 12.429688 18.214844 13.714844 19.289062 14.144531 C 23.144531 15.859375 25.074219 15.644531 27.859375 15 C 32.359375 13.714844 34.71875 5.144531 31.289062 6.644531 C 27.859375 9 25.929688 10.5 22.5 9 C 21 8.359375 19.074219 5.359375 18.214844 3.214844 C 16.5 -0.855469 15.644531 -5.785156 15.429688 -11.574219 C 15.214844 -15.214844 16.074219 -21 16.5 -24.429688 C 16.929688 -27.214844 18 -31.289062 19.074219 -33.003906 C 21.859375 -35.359375 25.289062 -39.003906 27.644531 -41.574219 L 31.929688 -45.648438 C 32.574219 -46.289062 32.574219 -47.359375 33.644531 -48.21875 C 33.644531 -48.21875 33.859375 -48.433594 34.289062 -48.21875 L 45.859375 -62.789062 C 47.359375 -64.933594 60.433594 -88.078125 60.648438 -87.863281 C 61.078125 -89.148438 61.503906 -90.4375 61.289062 -91.722656 C 61.078125 -92.148438 60.648438 -92.792969 61.078125 -93.4375 C 61.503906 -93.863281 61.933594 -94.722656 62.363281 -95.363281 L 63.21875 -99.007812 L 65.578125 -102.007812 L 65.148438 -102.652344 C 65.578125 -102.867188 67.078125 -104.578125 66.003906 -105.867188 L 68.148438 -116.582031 C 67.503906 -118.296875 69.003906 -118.082031 69.003906 -119.796875 Z M 59.148438 -114.652344 C 58.503906 -110.582031 57.648438 -106.9375 56.148438 -103.292969 C 55.074219 -99.4375 53.363281 -95.792969 52.074219 -92.792969 C 49.933594 -88.292969 48.003906 -84.648438 46.074219 -80.363281 C 44.359375 -77.578125 43.074219 -75.007812 41.359375 -72.433594 C 40.074219 -70.503906 38.574219 -68.363281 36.859375 -66.648438 C 34.503906 -63.21875 31.503906 -59.363281 28.929688 -56.148438 C 27.003906 -54.003906 24.429688 -50.359375 22.714844 -48.433594 L 24 -54.433594 C 24.429688 -55.71875 25.074219 -56.363281 25.289062 -57.003906 C 26.789062 -60.003906 27.644531 -63.21875 28.714844 -66.433594 C 30.003906 -68.578125 30.859375 -71.578125 31.71875 -73.507812 C 32.144531 -74.578125 31.929688 -75.433594 32.359375 -76.71875 C 32.359375 -77.792969 33.003906 -79.078125 33.644531 -80.578125 C 34.289062 -82.078125 34.71875 -83.792969 35.789062 -85.722656 C 36.21875 -86.363281 36.644531 -87.4375 37.074219 -88.292969 C 37.933594 -90.648438 39.003906 -93.4375 40.074219 -95.578125 C 40.933594 -97.722656 42.433594 -99.863281 43.503906 -102.007812 C 45.003906 -104.367188 47.148438 -106.722656 48.003906 -109.507812 C 49.074219 -112.292969 51.003906 -114.652344 52.933594 -117.007812 C 54.21875 -119.367188 56.363281 -121.296875 58.289062 -123.222656 C 58.71875 -123.652344 58.933594 -124.082031 59.148438 -124.511719 L 60.648438 -125.796875 C 61.078125 -125.582031 61.289062 -125.582031 61.503906 -125.582031 C 60.648438 -121.9375 60.433594 -118.082031 59.148438 -114.652344 Z M 59.148438 -114.652344 "/></g></g></g><g fill="rgb(0%, 0%, 0%)" fill-opacity="1"><g transform="translate(559.963605, 392.930035)"><g><path d="M 60.863281 -29.359375 C 55.503906 -27.429688 52.933594 -26.789062 49.71875 -25.503906 C 46.074219 -24.214844 42.21875 -23.144531 38.359375 -21.644531 C 38.144531 -21.859375 38.359375 -22.074219 38.359375 -22.289062 L 36.859375 -27.003906 C 35.789062 -29.144531 34.929688 -30.429688 33.644531 -31.503906 C 33.21875 -31.71875 32.359375 -31.71875 32.144531 -31.929688 C 29.574219 -34.074219 26.574219 -34.074219 24.429688 -34.929688 C 24 -35.144531 23.574219 -35.144531 23.359375 -35.359375 C 22.5 -36.21875 22.074219 -37.289062 21 -37.289062 C 19.289062 -37.289062 17.144531 -37.503906 15.214844 -36.644531 C 12.644531 -35.359375 10.5 -33.644531 8.570312 -31.71875 C 7.285156 -30.429688 6.429688 -27.859375 4.929688 -25.714844 C 4.714844 -25.714844 4.285156 -22.929688 3.859375 -21.644531 C 2.785156 -17.789062 0.855469 -13.714844 1.070312 -9.644531 C 1.285156 -6.214844 1.5 -2.144531 3.859375 0.214844 C 5.359375 2.144531 7.070312 3.644531 9.644531 4.070312 C 11.359375 4.929688 13.929688 4.929688 16.074219 5.144531 C 16.5 5.359375 17.359375 5.359375 18.214844 5.144531 C 20.144531 4.5 21.644531 4.070312 23.359375 3 C 24.214844 3 25.074219 2.570312 25.714844 2.144531 C 26.574219 1.070312 27.859375 0 28.929688 -1.070312 L 29.359375 -1.5 C 31.289062 -3.644531 32.359375 -5.785156 34.074219 -7.714844 C 34.289062 -7.929688 34.074219 -8.785156 34.289062 -9 C 35.574219 -9.859375 35.574219 -11.144531 36.644531 -12.214844 C 36.644531 -12.214844 36.644531 -12.429688 36.644531 -12.429688 L 36.21875 -12.644531 C 36.21875 -13.5 36.644531 -14.144531 36.859375 -14.785156 C 36.859375 -15.644531 37.074219 -16.074219 38.144531 -16.074219 C 38.574219 -16.074219 39.003906 -16.285156 39.644531 -16.285156 C 41.789062 -16.5 43.503906 -16.714844 45.859375 -17.789062 L 48.859375 -19.074219 C 49.933594 -19.5 51.648438 -19.5 51.863281 -20.789062 C 51.863281 -21 52.074219 -21 52.289062 -21 L 53.789062 -21 C 54.648438 -21 54.648438 -21.859375 55.503906 -22.5 C 56.789062 -23.359375 58.503906 -24.644531 61.078125 -27.214844 L 61.078125 -29.144531 Z M 30.429688 -20.789062 L 24.429688 -20.789062 C 23.144531 -20.789062 22.5 -21 22.074219 -22.074219 C 21.429688 -23.144531 21.214844 -24.429688 21.214844 -25.503906 C 21.429688 -27.429688 22.929688 -28.289062 24.214844 -29.359375 C 24.859375 -30.003906 25.929688 -30.429688 27.214844 -30.429688 C 27.859375 -30.644531 28.289062 -30.644531 28.714844 -30.003906 C 29.789062 -28.289062 30.003906 -26.144531 30.429688 -24.429688 C 30.429688 -23.144531 30.214844 -21.859375 30.429688 -20.789062 Z M 28.503906 -14.359375 C 27.429688 -12.859375 27.003906 -11.144531 26.144531 -9.859375 C 25.074219 -8.144531 23.789062 -6.644531 22.5 -5.359375 C 20.144531 -3 17.144531 -0.855469 13.929688 0 C 11.144531 1.070312 8.570312 0.214844 8.359375 -1.5 C 8.144531 -2.785156 7.714844 -3.859375 7.714844 -5.359375 C 7.714844 -7.5 7.714844 -10.070312 8.570312 -12.214844 C 8.785156 -13.285156 8.785156 -14.359375 9.214844 -15.644531 C 9.429688 -16.5 9.859375 -17.789062 10.5 -18.644531 C 11.574219 -20.789062 12.644531 -22.5 13.714844 -25.074219 C 13.929688 -24.214844 14.359375 -23.359375 14.785156 -22.714844 C 15.214844 -21.429688 16.285156 -20.359375 17.789062 -19.5 C 19.5 -18.214844 21.859375 -17.144531 24 -16.714844 C 25.074219 -16.285156 26.789062 -16.074219 27.859375 -16.074219 C 28.929688 -15.644531 29.359375 -15.429688 28.503906 -14.359375 Z M 28.503906 -14.359375 "/></g></g></g><g fill="rgb(0%, 0%, 0%)" fill-opacity="1"><g transform="translate(597.680951, 392.930035)"><g><path d="M 54.863281 -27.003906 C 54.648438 -26.789062 54.21875 -26.574219 54.003906 -26.574219 C 52.933594 -25.714844 51.648438 -24.644531 50.574219 -24 C 50.574219 -24 50.574219 -23.574219 50.359375 -23.144531 C 49.71875 -24 49.503906 -23.144531 49.289062 -22.929688 C 48.21875 -22.289062 47.574219 -21.859375 47.148438 -21.214844 C 45.433594 -20.144531 40.503906 -15.214844 38.789062 -14.144531 C 36.429688 -12.214844 34.074219 -10.285156 31.503906 -8.359375 L 24.859375 -4.714844 C 24 -4.714844 23.359375 -4.070312 22.5 -3.644531 C 21.214844 -2.785156 19.714844 -2.144531 18.214844 -1.714844 C 16.929688 -0.855469 15.214844 -0.644531 13.5 -0.214844 C 10.714844 0.855469 7.929688 1.070312 5.359375 1.070312 C 4.714844 0.855469 4.070312 0.644531 3.859375 0 C 3.429688 -1.929688 3.214844 -4.285156 4.070312 -6.214844 C 5.144531 -9.859375 6.644531 -13.5 8.785156 -16.714844 C 10.070312 -18.644531 11.359375 -20.359375 12.429688 -22.074219 C 13.5 -23.789062 15 -24.859375 15.859375 -26.574219 C 16.929688 -28.503906 18.859375 -29.789062 20.789062 -30.644531 C 21.429688 -31.074219 21.644531 -31.074219 22.074219 -30.214844 C 22.289062 -29.574219 22.929688 -28.929688 23.574219 -28.289062 C 24.429688 -27.644531 25.503906 -27.214844 26.574219 -26.574219 C 27.214844 -26.144531 28.503906 -25.929688 28.929688 -26.574219 C 29.574219 -27.429688 30.214844 -28.074219 30.214844 -28.929688 C 30.644531 -29.789062 30.644531 -30.859375 30.429688 -31.289062 C 29.574219 -32.359375 28.503906 -33.429688 27.214844 -34.289062 C 26.359375 -35.144531 25.074219 -35.574219 23.789062 -36.21875 C 22.714844 -36.859375 21.644531 -37.71875 20.574219 -38.144531 C 19.714844 -38.574219 18.644531 -38.144531 17.789062 -38.359375 C 15.859375 -39.003906 13.929688 -38.574219 12.214844 -36.859375 C 11.359375 -36.21875 9.214844 -33.644531 9 -33.429688 C 8.785156 -33.003906 8.359375 -32.574219 7.929688 -31.929688 C 7.5 -31.929688 7.285156 -31.503906 7.070312 -31.074219 C 3.429688 -26.144531 -2.355469 -17.144531 -2.785156 -8.359375 C -3.214844 -7.070312 -3.214844 -5.570312 -3.214844 -4.5 C -3 -2.785156 -2.570312 -1.5 -2.355469 -0.214844 C -1.929688 0.855469 -1.5 1.929688 -0.855469 2.785156 C 0.214844 3.859375 1.285156 5.144531 2.355469 6 C 3.859375 6.859375 5.359375 7.285156 6.644531 7.929688 C 7.5 8.144531 8.785156 8.144531 9.429688 8.359375 L 14.574219 9 C 15.429688 9.214844 16.074219 8.359375 16.714844 7.714844 C 18.429688 7.070312 20.574219 6.644531 22.5 5.785156 C 23.359375 5.359375 24.429688 5.144531 25.074219 4.714844 C 25.074219 3.859375 26.574219 3.859375 26.789062 3.644531 C 27.644531 2.570312 30.214844 0.855469 30.429688 0.429688 C 30.429688 0.429688 30.429688 0.214844 30.644531 0.214844 C 31.289062 -0.214844 35.574219 -4.070312 39.433594 -7.5 L 42.003906 -9.429688 C 42.433594 -9.859375 43.074219 -10.5 43.71875 -11.359375 C 44.144531 -11.574219 44.574219 -12 44.789062 -12.214844 C 45.859375 -12.429688 48.648438 -16.929688 49.71875 -17.574219 C 50.148438 -17.789062 50.148438 -18.214844 50.574219 -18.644531 C 50.574219 -18.859375 51.003906 -19.289062 51.21875 -19.5 C 51.648438 -19.929688 51.648438 -20.144531 51.863281 -20.359375 C 52.074219 -21.214844 53.363281 -21.429688 52.933594 -22.5 C 52.933594 -22.714844 53.148438 -23.144531 53.363281 -23.144531 C 54.648438 -23.789062 54.863281 -24.859375 55.074219 -26.144531 C 55.289062 -26.359375 54.863281 -26.574219 54.863281 -27.003906 Z M 54.863281 -27.003906 "/></g></g></g><g fill="rgb(0%, 0%, 0%)" fill-opacity="1"><g transform="translate(629.397814, 392.930035)"><g><path d="M 81.222656 -28.503906 L 80.363281 -30.429688 L 79.722656 -30.859375 C 77.578125 -29.574219 75.863281 -28.503906 74.363281 -27.214844 C 69.433594 -24 69.863281 -24.429688 64.71875 -21.214844 C 61.71875 -19.074219 58.503906 -17.144531 55.71875 -15.429688 C 52.71875 -13.285156 49.289062 -10.714844 45.859375 -9.214844 C 45.003906 -8.785156 44.144531 -8.785156 43.503906 -8.570312 C 42.859375 -8.359375 42.433594 -8.359375 42.003906 -8.570312 C 40.933594 -9.214844 40.289062 -10.070312 40.074219 -10.929688 C 38.789062 -13.929688 38.789062 -17.144531 39.433594 -20.144531 C 39.644531 -20.574219 39.644531 -21 39.859375 -21.214844 C 40.503906 -22.929688 40.289062 -25.289062 40.289062 -25.289062 C 39.859375 -26.789062 39.003906 -27.859375 37.71875 -28.289062 C 35.144531 -28.503906 33.644531 -26.789062 31.929688 -26.574219 C 33.003906 -28.714844 34.71875 -30.644531 34.074219 -33.644531 C 33.21875 -38.574219 28.074219 -39.433594 23.574219 -40.289062 C 19.5 -39.859375 15.859375 -37.289062 13.285156 -34.503906 C 10.714844 -31.289062 7.929688 -28.714844 5.570312 -25.074219 C 5.144531 -24.644531 4.714844 -23.574219 3.859375 -22.5 L 2.355469 -19.929688 C 1.929688 -18.429688 1.285156 -17.359375 1.070312 -16.074219 C 1.070312 -15.859375 1.070312 -15.859375 0.855469 -15.644531 C 0.429688 -14.359375 0 -13.285156 -0.644531 -11.785156 C -1.5 -8.570312 -0.855469 -5.785156 1.070312 -3.214844 C 2.355469 -2.570312 4.070312 -1.5 4.5 -1.070312 C 5.144531 -0.855469 5.785156 -0.855469 6.214844 -0.855469 C 9.429688 0.429688 13.074219 0.429688 16.5 -1.285156 C 19.929688 -2.785156 23.359375 -5.570312 25.929688 -7.5 C 26.359375 -7.714844 26.574219 -8.359375 27.003906 -8.785156 C 28.503906 -8.785156 28.503906 -10.929688 30.003906 -11.785156 C 30.214844 -11.359375 30.214844 -10.929688 30.644531 -10.714844 C 31.289062 -9.644531 31.074219 -9.214844 32.359375 -7.929688 C 33.21875 -6 34.71875 -5.144531 36.003906 -3.429688 C 36.644531 -3.214844 37.074219 -2.355469 37.71875 -2.144531 C 38.144531 -1.714844 39.433594 -1.714844 39.859375 -1.5 C 40.71875 -1.285156 42.644531 -1.714844 43.503906 -1.714844 C 44.144531 -1.714844 45.21875 -2.144531 45.433594 -2.144531 C 46.074219 -2.144531 47.148438 -2.570312 47.574219 -2.785156 C 48.648438 -3.429688 49.289062 -3.214844 50.574219 -3.859375 C 52.71875 -5.359375 54.648438 -5.785156 56.363281 -7.714844 L 61.503906 -11.574219 L 64.71875 -14.359375 C 65.363281 -14.574219 66.863281 -16.285156 67.078125 -16.5 C 68.148438 -16.929688 69.003906 -18 69.648438 -18.644531 C 70.292969 -19.074219 71.792969 -19.714844 72.863281 -20.574219 C 75.648438 -22.5 79.078125 -25.289062 81.222656 -28.503906 Z M 28.929688 -22.5 C 25.714844 -19.074219 24.214844 -16.5 21 -13.074219 C 18.859375 -10.714844 16.929688 -9.214844 14.144531 -8.144531 C 12 -7.285156 8.144531 -7.070312 5.785156 -7.070312 C 6.859375 -11.359375 8.785156 -15 10.714844 -18.429688 C 13.074219 -22.5 20.574219 -32.574219 27.003906 -33.644531 C 26.789062 -33.429688 25.074219 -24 29.789062 -23.574219 L 30.003906 -23.574219 C 30.003906 -23.574219 29.144531 -22.5 28.929688 -22.5 Z M 28.929688 -22.5 "/></g></g></g><g fill="rgb(0%, 0%, 0%)" fill-opacity="1"><g transform="translate(686.188128, 392.930035)"><g><path d="M 45.003906 -70.71875 C 46.289062 -70.933594 49.074219 -71.363281 49.933594 -70.71875 C 51.433594 -71.363281 53.574219 -71.363281 54.863281 -71.363281 L 55.289062 -71.578125 C 56.148438 -72.863281 59.363281 -73.078125 58.71875 -75.21875 C 58.074219 -75.648438 57.003906 -74.792969 56.574219 -74.578125 C 52.074219 -73.71875 50.789062 -73.933594 40.503906 -74.363281 C 39.644531 -74.148438 37.933594 -74.792969 34.929688 -75.007812 C 35.359375 -77.363281 36.003906 -78.433594 37.503906 -82.722656 C 38.574219 -85.507812 40.289062 -88.292969 40.933594 -90.863281 C 43.074219 -94.507812 44.789062 -98.363281 46.503906 -102.4375 C 47.148438 -103.9375 47.789062 -105.007812 46.074219 -106.078125 C 45.648438 -106.722656 44.789062 -107.152344 44.574219 -107.792969 C 44.359375 -109.507812 42.433594 -109.9375 40.71875 -111.007812 C 40.289062 -111.222656 39.859375 -111.222656 39.644531 -111.652344 C 38.789062 -111.867188 38.144531 -111.652344 37.71875 -110.367188 C 37.289062 -108.867188 36.429688 -106.722656 36.003906 -105.222656 C 35.359375 -104.152344 34.71875 -103.722656 34.71875 -102.867188 C 33.429688 -100.292969 33.003906 -97.9375 31.929688 -95.578125 C 31.289062 -93.007812 30.003906 -90.648438 29.359375 -88.507812 C 28.503906 -86.363281 27.644531 -84.433594 27.003906 -82.292969 C 25.714844 -80.148438 25.503906 -78.007812 24.214844 -75.863281 C 22.929688 -75.863281 21.429688 -75.863281 19.5 -75.648438 L 15.429688 -76.078125 C 13.929688 -76.71875 12.429688 -76.292969 11.144531 -75.648438 C 10.714844 -75.433594 10.070312 -75.648438 9.859375 -75.648438 C 9.859375 -75.648438 9 -75.863281 7.929688 -74.578125 C 6.859375 -74.148438 6.429688 -72.863281 6.429688 -72.21875 C 6.644531 -70.292969 9 -69.863281 11.574219 -69.21875 C 15.644531 -68.792969 18.644531 -68.578125 21.429688 -68.578125 L 19.289062 -61.933594 L 12.429688 -40.503906 C 12.644531 -40.289062 12.644531 -39.859375 12.859375 -39.644531 L 12.429688 -39.644531 C 12 -38.574219 11.359375 -37.933594 11.359375 -37.074219 C 10.5 -34.289062 10.5 -31.929688 9.644531 -29.574219 L 8.144531 -23.574219 C 7.714844 -21 6.859375 -18.429688 7.070312 -15.859375 C 6.644531 -11.359375 6 -7.070312 6.859375 -2.785156 C 7.714844 1.5 8.570312 5.785156 10.929688 9.214844 C 11.359375 9.644531 11.785156 10.070312 12.214844 10.714844 C 13.929688 12.644531 14.785156 13.929688 16.714844 14.574219 C 19.714844 16.5 20.359375 16.285156 23.574219 16.074219 L 23.144531 16.074219 C 24.429688 16.074219 24.859375 15.859375 25.289062 15.214844 C 26.359375 13.5 28.289062 12.214844 27.644531 10.070312 C 27.644531 10.070312 25.074219 11.359375 23.359375 11.144531 C 21.429688 11.359375 21.214844 11.144531 19.289062 10.070312 L 17.789062 8.359375 C 17.359375 7.929688 16.5 7.070312 16.5 5.570312 C 16.074219 4.070312 15.644531 2.570312 15.859375 1.070312 C 15.859375 0.214844 15.859375 -0.429688 15 -0.644531 C 15.859375 -1.070312 15.214844 -1.285156 14.785156 -1.714844 C 15.859375 -1.929688 15.644531 -5.785156 14.785156 -6.859375 C 15.214844 -7.5 15.644531 -8.359375 15.859375 -9 C 15.429688 -9.214844 15.214844 -9.429688 15.429688 -9.429688 C 15.644531 -9.644531 15.859375 -10.070312 15.859375 -10.5 C 15.859375 -12.214844 16.074219 -13.714844 16.714844 -15.644531 C 16.5 -16.285156 16.714844 -17.359375 16.929688 -18.214844 C 16.929688 -18.859375 17.574219 -19.714844 17.574219 -20.144531 C 17.574219 -21.214844 18.214844 -22.5 17.574219 -23.574219 C 18 -24.214844 18.644531 -24.859375 18.859375 -25.503906 C 19.074219 -27.859375 19.929688 -30.214844 20.574219 -32.574219 C 20.574219 -33.859375 21.214844 -35.144531 21.859375 -36.429688 C 22.074219 -38.359375 23.144531 -40.503906 23.574219 -42.644531 C 23.789062 -43.503906 24.214844 -44.359375 24.644531 -45.433594 C 25.074219 -46.71875 24.859375 -48.003906 25.503906 -49.503906 C 25.503906 -49.933594 25.289062 -50.359375 25.503906 -50.359375 C 26.789062 -50.789062 26.574219 -51.648438 26.359375 -52.074219 C 26.144531 -52.503906 26.574219 -52.933594 26.574219 -53.363281 C 27.429688 -54.21875 28.074219 -55.71875 27.859375 -56.574219 C 28.289062 -57.21875 28.714844 -57.648438 28.503906 -58.074219 C 28.074219 -58.933594 28.929688 -60.648438 29.789062 -61.078125 L 32.144531 -68.363281 L 34.503906 -68.363281 C 36.429688 -68.578125 39.644531 -68.363281 42.003906 -68.363281 C 44.789062 -68.578125 46.71875 -68.578125 47.789062 -68.578125 C 49.71875 -68.578125 51.648438 -68.792969 52.289062 -69.21875 L 55.503906 -69.648438 C 55.933594 -69.863281 56.148438 -70.078125 55.503906 -70.503906 C 51.21875 -70.078125 49.503906 -70.078125 41.144531 -69.863281 L 41.359375 -70.292969 Z M 45.003906 -70.71875 "/></g></g></g><g fill="rgb(0%, 0%, 0%)" fill-opacity="1"><g transform="translate(718.547894, 392.930035)"><g><path d="M 56.363281 -21 C 57.003906 -21.429688 57.433594 -22.074219 58.074219 -22.5 C 58.074219 -22.714844 57.863281 -22.714844 57.863281 -22.714844 L 57.433594 -24.214844 L 50.148438 -18.859375 C 49.71875 -18.429688 48.433594 -17.789062 47.574219 -17.359375 C 45.433594 -16.074219 41.359375 -13.714844 39.433594 -12.429688 L 38.789062 -12 L 31.71875 -7.929688 C 30.644531 -7.285156 29.574219 -7.285156 28.503906 -6.859375 C 26.789062 -6.214844 25.074219 -5.359375 23.574219 -4.714844 C 21.644531 -4.070312 19.714844 -3.214844 17.789062 -3 C 15 -2.570312 12.214844 -2.785156 9.429688 -2.570312 C 7.714844 -3.214844 7.285156 -3.644531 6.429688 -6.214844 C 7.929688 -7.070312 8.570312 -7.285156 10.285156 -8.144531 C 10.714844 -8.570312 11.144531 -9.214844 11.785156 -9.429688 C 13.074219 -10.285156 14.785156 -10.929688 16.285156 -11.785156 C 16.5 -12 16.5 -12.644531 16.714844 -12.859375 L 19.714844 -15 C 20.574219 -15.429688 22.074219 -15.644531 22.289062 -17.144531 C 22.5 -17.789062 23.789062 -18 24.429688 -18.644531 C 26.359375 -20.574219 28.289062 -22.5 30.214844 -24.644531 C 30.859375 -25.289062 31.503906 -26.359375 31.929688 -27.429688 C 32.574219 -29.144531 31.503906 -32.789062 29.789062 -33.859375 C 28.289062 -35.144531 26.574219 -36.429688 24.644531 -37.289062 C 23.144531 -38.144531 21.214844 -39.644531 19.074219 -38.789062 C 18.214844 -38.574219 17.574219 -38.359375 16.929688 -38.359375 C 14.144531 -38.144531 11.785156 -36.859375 9.859375 -34.929688 C 7.929688 -32.789062 6 -30.644531 4.070312 -28.289062 C 3 -27.003906 2.144531 -25.714844 1.285156 -24.429688 C -0.855469 -20.359375 -1.929688 -16.285156 -2.144531 -12 C -2.144531 -10.5 -2.355469 -9 -1.285156 -6.429688 C -0.855469 -4.285156 -0.855469 -4.285156 -0.429688 -3.859375 C 0.855469 -1.929688 1.714844 -0.644531 3.214844 0.429688 C 3.429688 0.644531 4.070312 0.855469 4.285156 1.285156 C 6.429688 3 7.285156 3.214844 9.214844 3.859375 C 11.144531 4.5 13.5 4.929688 15.644531 5.144531 C 17.359375 5.359375 18.859375 4.929688 20.574219 4.5 C 21.644531 4.285156 22.929688 4.070312 23.789062 3.644531 C 24.429688 3.214844 24.859375 3 25.714844 3 C 27.214844 2.785156 28.714844 2.785156 30.003906 2.144531 C 32.144531 1.285156 33.859375 -0.214844 35.789062 -1.285156 C 37.289062 -2.355469 38.574219 -3.214844 40.289062 -4.070312 L 44.359375 -7.285156 C 45.21875 -7.929688 46.289062 -8.785156 47.148438 -9.644531 C 47.359375 -9.859375 48.21875 -10.714844 48.433594 -11.359375 L 48.433594 -11.574219 C 48.648438 -13.074219 49.503906 -13.5 50.359375 -14.144531 C 49.71875 -14.785156 50.148438 -15.214844 51.003906 -15.644531 L 51.648438 -16.5 C 52.71875 -17.144531 52.71875 -17.789062 53.148438 -18.214844 Z M 7.714844 -19.289062 C 9 -21.859375 10.5 -24.429688 12.214844 -26.789062 C 13.714844 -28.714844 15.644531 -29.789062 17.574219 -31.289062 C 19.289062 -32.574219 21.214844 -32.574219 23.144531 -33.429688 C 24 -33.859375 25.074219 -31.929688 24.429688 -30.859375 C 23.574219 -29.359375 22.714844 -28.074219 21.429688 -27.003906 L 15.644531 -21.859375 L 9.859375 -17.144531 C 9 -16.5 7.929688 -15.859375 6.214844 -14.785156 C 6.644531 -16.5 7.070312 -18 7.714844 -19.289062 Z M 7.714844 -19.289062 "/></g></g></g><g fill="rgb(0%, 0%, 0%)" fill-opacity="1"><g transform="translate(759.903895, 392.930035)"><g/></g></g><g fill="rgb(36.079407%, 45.098877%, 63.919067%)" fill-opacity="1"><g transform="translate(743.084624, 407.355966)"><g><path d="M 80.796875 -12.421875 C 90.359375 -12.421875 98.316406 -14.242188 104.671875 -17.890625 C 111.035156 -21.535156 116.109375 -26.320312 119.890625 -32.25 C 123.679688 -38.175781 126.328125 -44.925781 127.828125 -52.5 C 129.328125 -60.070312 130.078125 -67.71875 130.078125 -75.4375 L 130.078125 -152.15625 L 145.078125 -152.15625 L 145.078125 -75.4375 C 145.078125 -65.144531 143.929688 -55.390625 141.640625 -46.171875 C 139.359375 -36.960938 135.679688 -28.859375 130.609375 -21.859375 C 125.535156 -14.859375 118.925781 -9.285156 110.78125 -5.140625 C 102.644531 -0.992188 92.71875 1.078125 81 1.078125 C 69 1.078125 58.890625 -1.097656 50.671875 -5.453125 C 42.460938 -9.816406 35.859375 -15.570312 30.859375 -22.71875 C 25.859375 -29.863281 22.285156 -38.003906 20.140625 -47.140625 C 17.992188 -56.285156 16.921875 -65.71875 16.921875 -75.4375 L 16.921875 -152.15625 L 31.71875 -152.15625 L 31.71875 -75.4375 C 31.71875 -67.4375 32.503906 -59.648438 34.078125 -52.078125 C 35.648438 -44.503906 38.328125 -37.785156 42.109375 -31.921875 C 45.890625 -26.066406 50.921875 -21.351562 57.203125 -17.78125 C 63.492188 -14.207031 71.359375 -12.421875 80.796875 -12.421875 Z M 80.796875 -12.421875 "/></g></g></g></svg>